# xmcd
# 
# Track frame offsets:
#     150
#     19255
#     39010
#     58152
# 
# Disc length: 997
# 
# Revision: 2
# Processed by: cddbd v1.5.2PL0 Copyright (c) Steve Scherf et al.
# Submitted via: fre:ac v1.0.31
# 
DISCID=2903e304
DTITLE=Brownstone - If You Love Me (Remixes)
DYEAR=1995
DGENRE=Soul
TTITLE0=If You Love Me [Smooth Out Remix Radio Edit]
TTITLE1=If You Love Me [If You Jazz Me Remix Radio Edit]
TTITLE2=If You Love Me [Characters Funk Remix Radio Edit]
TTITLE3=If You Love Me [Lp Version Radio Edit]
EXTD=
EXTT0=
EXTT1=
EXTT2=
EXTT3=
PLAYORDER=
